<?xml version="1.0" encoding="UTF-8" standalone="no"?>
<!-- Created with Inkscape (http://www.inkscape.org/) -->

<svg
   version="1.1"
   id="svg1"
   width="2070.7466"
   height="359.50668"
   viewBox="0 0 2070.7466 359.50668"
   sodipodi:docname="mets_Mets_Black.svg"
   inkscape:version="1.4.2 (f4327f4, 2025-05-13)"
   xmlns:inkscape="http://www.inkscape.org/namespaces/inkscape"
   xmlns:sodipodi="http://sodipodi.sourceforge.net/DTD/sodipodi-0.dtd"
   xmlns="http://www.w3.org/2000/svg"
   xmlns:svg="http://www.w3.org/2000/svg">
  <defs
     id="defs1" />
  <sodipodi:namedview
     id="namedview1"
     pagecolor="#ffffff"
     bordercolor="#000000"
     borderopacity="0.25"
     inkscape:showpageshadow="2"
     inkscape:pageopacity="0.0"
     inkscape:pagecheckerboard="0"
     inkscape:deskcolor="#d1d1d1"
     inkscape:zoom="1.1850798"
     inkscape:cx="1035.3733"
     inkscape:cy="247.66264"
     inkscape:window-width="2560"
     inkscape:window-height="1494"
     inkscape:window-x="-11"
     inkscape:window-y="-11"
     inkscape:window-maximized="1"
     inkscape:current-layer="g1" />
  <g
     id="g1"
     inkscape:groupmode="layer"
     inkscape:label="1">
    <g
       id="group-R5">
      <path
         id="path2"
         d="m 5840.98,298.219 h 120.7 c 21.18,0 30.45,15.402 30.45,35.531 0,19.34 -9.62,36.852 -30.45,36.852 h -120.7 z m 0,100.39 h 112.12 c 21.18,0 29.76,15.75 29.76,35.442 0,19 -9.37,36.5 -29.76,36.5 H 5840.98 Z M 5810.52,270.301 V 498.91 h 142.58 c 39.73,0 60.21,-29.41 60.21,-63.461 0,-20.738 -5.77,-37.629 -23.63,-48.75 21.1,-8.57 32.91,-33.258 32.91,-52.597 0,-34.75 -20.74,-63.801 -60.91,-63.801 h -151.16"
         style="fill:#171717;fill-opacity:1;fill-rule:nonzero;stroke:none"
         transform="matrix(0.13333333,0,0,-0.13333333,0,359.50667)" />
      <path
         id="path3"
         d="m 6203.77,398.609 h 125.33 c 21.18,0 30.11,15.75 30.11,35.442 0,19 -9.28,36.5 -30.11,36.5 H 6203.77 Z M 6173.31,270.301 V 498.91 h 155.79 c 40.52,0 60.57,-30.461 60.57,-64.512 0,-30.449 -15.76,-61.257 -53.04,-63.449 -3.5,0 -6.74,-0.347 -10.33,-0.347 l 57.68,-100.301 h -34.05 l -56.98,100.301 h -89.18 V 270.301 h -30.46"
         style="fill:#171717;fill-opacity:1;fill-rule:nonzero;stroke:none"
         transform="matrix(0.13333333,0,0,-0.13333333,0,359.50667)" />
      <path
         id="path4"
         d="m 6540.38,498.91 h 30.46 V 270.301 h -30.46 V 498.91"
         style="fill:#171717;fill-opacity:1;fill-rule:nonzero;stroke:none"
         transform="matrix(0.13333333,0,0,-0.13333333,0,359.50667)" />
      <path
         id="path5"
         d="m 6836.39,298.219 c 49.45,0 77.8,41.922 77.8,86.383 0,44.027 -28.35,85.949 -77.8,85.949 h -75.54 V 298.219 Z M 6730.4,498.91 h 105.99 c 68.79,0 110.36,-53.39 110.36,-113.961 0,-60.558 -41.57,-114.648 -110.36,-114.648 H 6730.4 V 498.91"
         style="fill:#171717;fill-opacity:1;fill-rule:nonzero;stroke:none"
         transform="matrix(0.13333333,0,0,-0.13333333,0,359.50667)" />
      <path
         id="path6"
         d="m 7084.6,384.602 c 0,59.867 39.04,118.949 109.58,118.949 41.93,0 77.81,-21.531 96.8,-56.629 l 2.45,-4.641 -37.19,-0.351 -1.14,1.402 c -14.27,18.637 -36.5,30.109 -60.92,30.109 -49.8,0 -76.67,-44.812 -76.67,-88.492 0,-44.461 27.31,-88.828 77.46,-88.828 43.32,0 72.38,33.25 78.07,72.027 h -70.54 v 28.274 h 102.4 l 0.44,-3.242 c 0,-2.891 0.35,-5.692 0.35,-8.578 0,-60.563 -39.48,-119.293 -110.37,-119.293 -71.33,0 -110.72,58.382 -110.72,119.293"
         style="fill:#171717;fill-opacity:1;fill-rule:nonzero;stroke:none"
         transform="matrix(0.13333333,0,0,-0.13333333,0,359.50667)" />
      <path
         id="path7"
         d="m 7454.57,498.91 h 30.45 V 270.301 h -30.45 V 498.91"
         style="fill:#171717;fill-opacity:1;fill-rule:nonzero;stroke:none"
         transform="matrix(0.13333333,0,0,-0.13333333,0,359.50667)" />
      <path
         id="path8"
         d="m 7644.58,498.91 h 30.11 l 151.5,-181.699 V 498.91 h 30.46 V 270.301 h -30.46 L 7675.04,452 V 270.301 h -30.46 V 498.91"
         style="fill:#171717;fill-opacity:1;fill-rule:nonzero;stroke:none"
         transform="matrix(0.13333333,0,0,-0.13333333,0,359.50667)" />
      <path
         id="path9"
         d="m 8005.26,384.602 c 0,59.867 39.04,118.949 109.67,118.949 41.84,0 77.72,-21.531 96.71,-56.629 l 2.45,-4.641 -37.19,-0.351 -1.14,1.402 c -14.27,18.637 -36.5,30.109 -60.83,30.109 -49.89,0 -76.76,-44.812 -76.76,-88.492 0,-44.461 27.31,-88.828 77.46,-88.828 43.32,0 72.38,33.25 78.07,72.027 h -70.54 v 28.274 h 102.4 l 0.44,-3.242 c 0,-2.891 0.35,-5.692 0.35,-8.578 0,-60.563 -39.48,-119.293 -110.37,-119.293 -71.33,0 -110.72,58.382 -110.72,119.293"
         style="fill:#171717;fill-opacity:1;fill-rule:nonzero;stroke:none"
         transform="matrix(0.13333333,0,0,-0.13333333,0,359.50667)" />
      <path
         id="path10"
         d="m 8654.08,470.551 h -90.59 v 28.359 h 212.07 v -28.359 h -91.03 v -200.25 h -30.45 v 200.25"
         style="fill:#171717;fill-opacity:1;fill-rule:nonzero;stroke:none"
         transform="matrix(0.13333333,0,0,-0.13333333,0,359.50667)" />
      <path
         id="path11"
         d="m 8919.8,498.91 h 207.08 v -28.359 h -176.62 v -71.942 h 131.46 v -28.007 h -131.46 v -72.383 h 176.62 V 270.301 H 8919.8 V 498.91"
         style="fill:#171717;fill-opacity:1;fill-rule:nonzero;stroke:none"
         transform="matrix(0.13333333,0,0,-0.13333333,0,359.50667)" />
      <path
         id="path12"
         d="m 9260,384.602 c 0,60.57 39.39,118.949 110.37,118.949 55.14,0 94.17,-36.59 106.43,-84.903 l 1.05,-4.289 h -33.7 l -0.7,2.45 c -10.06,32.652 -37.28,56.632 -73.43,56.632 -49.8,0 -77.11,-44.812 -77.11,-88.492 0,-44.109 27.31,-88.828 77.11,-88.828 36.15,0 63.37,23.981 73.43,56.188 l 0.7,2.531 h 33.7 l -1.05,-3.93 c -12.26,-48.762 -50.94,-85.601 -106.43,-85.601 -70.98,0 -110.37,58.73 -110.37,119.293"
         style="fill:#171717;fill-opacity:1;fill-rule:nonzero;stroke:none"
         transform="matrix(0.13333333,0,0,-0.13333333,0,359.50667)" />
      <path
         id="path13"
         d="m 9626.73,498.91 h 30.45 V 398.609 h 151.16 V 498.91 h 30.45 V 270.301 h -30.45 V 370.602 H 9657.18 V 270.301 h -30.45 V 498.91"
         style="fill:#171717;fill-opacity:1;fill-rule:nonzero;stroke:none"
         transform="matrix(0.13333333,0,0,-0.13333333,0,359.50667)" />
      <path
         id="path14"
         d="m 9998.44,498.91 h 30.06 L 10180,317.211 V 498.91 h 30.5 V 270.301 H 10180 L 10028.9,452 V 270.301 h -30.46 V 498.91"
         style="fill:#171717;fill-opacity:1;fill-rule:nonzero;stroke:none"
         transform="matrix(0.13333333,0,0,-0.13333333,0,359.50667)" />
      <path
         id="path15"
         d="m 10547.6,384.602 c 0,44.457 -28,88.839 -78.1,88.839 -50.2,0 -77.5,-44.382 -77.5,-88.492 0,-44.461 27.3,-88.828 77.5,-88.828 50.1,0 78.1,44.02 78.1,88.481 z m -188.5,0 c 0,60.57 39.4,118.949 110.4,118.949 70.9,0 110.7,-58.031 110.7,-118.949 0,-60.911 -39.8,-119.293 -110.7,-119.293 -71,0 -110.4,58.73 -110.4,119.293"
         style="fill:#171717;fill-opacity:1;fill-rule:nonzero;stroke:none"
         transform="matrix(0.13333333,0,0,-0.13333333,0,359.50667)" />
      <path
         id="path16"
         d="m 10729.1,498.91 h 30.4 V 298.219 h 136.1 v -27.918 h -166.5 V 498.91"
         style="fill:#171717;fill-opacity:1;fill-rule:nonzero;stroke:none"
         transform="matrix(0.13333333,0,0,-0.13333333,0,359.50667)" />
      <path
         id="path17"
         d="m 11206.8,384.602 c 0,44.457 -27.9,88.839 -78.1,88.839 -50.1,0 -77.4,-44.382 -77.4,-88.492 0,-44.461 27.3,-88.828 77.4,-88.828 50.2,0 78.1,44.02 78.1,88.481 z m -188.4,0 c 0,60.57 39.3,118.949 110.3,118.949 70.9,0 110.7,-58.031 110.7,-118.949 0,-60.911 -39.8,-119.293 -110.7,-119.293 -71,0 -110.3,58.73 -110.3,119.293"
         style="fill:#171717;fill-opacity:1;fill-rule:nonzero;stroke:none"
         transform="matrix(0.13333333,0,0,-0.13333333,0,359.50667)" />
      <path
         id="path18"
         d="m 11377.2,384.602 c 0,59.867 39,118.949 109.7,118.949 41.8,0 77.7,-21.531 96.7,-56.629 l 2.4,-4.641 -37.2,-0.351 -1.1,1.402 c -14.3,18.637 -36.5,30.109 -60.8,30.109 -49.9,0 -76.8,-44.812 -76.8,-88.492 0,-44.461 27.3,-88.828 77.5,-88.828 43.3,0 72.3,33.25 78,72.027 h -70.5 v 28.274 h 102.4 l 0.4,-3.242 c 0,-2.891 0.4,-5.692 0.4,-8.578 0,-60.563 -39.5,-119.293 -110.4,-119.293 -71.3,0 -110.7,58.382 -110.7,119.293"
         style="fill:#171717;fill-opacity:1;fill-rule:nonzero;stroke:none"
         transform="matrix(0.13333333,0,0,-0.13333333,0,359.50667)" />
      <path
         id="path19"
         d="m 11747.2,498.91 h 30.4 V 270.301 h -30.4 V 498.91"
         style="fill:#171717;fill-opacity:1;fill-rule:nonzero;stroke:none"
         transform="matrix(0.13333333,0,0,-0.13333333,0,359.50667)" />
      <path
         id="path20"
         d="m 11937.2,498.91 h 207.1 v -28.359 h -176.7 v -71.942 h 131.5 v -28.007 h -131.5 v -72.383 h 176.7 v -27.918 h -207.1 V 498.91"
         style="fill:#171717;fill-opacity:1;fill-rule:nonzero;stroke:none"
         transform="matrix(0.13333333,0,0,-0.13333333,0,359.50667)" />
      <path
         id="path21"
         d="m 12287,324.039 -0.7,3.93 h 30.5 l 1,-2.528 c 7.9,-24.339 45.2,-31.859 71.3,-31.859 30.5,0 69.2,10.059 69.2,41.918 0,31.512 -41.2,37.641 -70.6,37.641 -44.4,0 -97.1,5.691 -97.1,61.609 0,51.199 45.2,68.801 91,68.801 39.1,0 93.5,-12.871 101.4,-58.031 l 0.7,-3.938 h -30.4 l -1.1,2.449 c -7.2,24.071 -42.3,31.598 -67.7,31.598 -28.7,0 -63.4,-9.719 -63.4,-39.039 0,-29.41 36.4,-35.531 64.5,-35.531 45.8,0 103.1,-5.688 103.1,-63.719 0,-53.828 -48.4,-72.031 -96,-72.031 -39.1,0 -97.1,12.863 -105.7,58.73"
         style="fill:#171717;fill-opacity:1;fill-rule:nonzero;stroke:none"
         transform="matrix(0.13333333,0,0,-0.13333333,0,359.50667)" />
      <path
         id="path22"
         d="m 5031.01,2097.48 -377.72,-642.37 c -123.14,-209.42 -322.79,-209.42 -445.93,0 l -477.96,812.85 c -122.68,208.63 -321.57,208.63 -444.25,0 l -477.96,-812.85 c -123.14,-209.42 -322.79,-209.42 -445.92,0 l -481.81,819.38 c -122.67,208.63 -321.57,208.63 -444.25,0 L 510.203,701.371 V 639.969 L 860.848,1236.3 c 123.14,209.41 322.792,209.41 445.932,0 l 486.65,-827.64 c 43.68,-74.281 97.03,-121.961 153.15,-143.351 h 137.96 c 56.12,21.39 109.47,69.07 153.14,143.351 l 486.66,827.64 c 123.14,209.41 322.79,209.41 445.93,0 l 471.07,-801.128 c 122.67,-208.633 321.57,-208.633 444.24,0 L 5031.01,2043 v 54.48"
         style="fill:#171717;fill-opacity:1;fill-rule:nonzero;stroke:none"
         transform="matrix(0.13333333,0,0,-0.13333333,0,359.50667)" />
      <path
         id="path23"
         d="m 8281.68,1924.15 h 413.41 v -902.56 h 171.24 v 902.56 h 411.78 v 156.46 h -996.43 v -156.46"
         style="fill:#171717;fill-opacity:1;fill-rule:nonzero;stroke:none"
         transform="matrix(0.13333333,0,0,-0.13333333,0,359.50667)" />
      <path
         id="path24"
         d="m 6272.7,1629.32 -342.57,451.29 H 5772.01 V 1021.59 h 171.28 v 784 l 266.83,-359.08 h 116.94 l 270.09,360.7 v -785.62 h 171.28 V 2080.61 H 6608.66 L 6272.7,1629.32"
         style="fill:#171717;fill-opacity:1;fill-rule:nonzero;stroke:none"
         transform="matrix(0.13333333,0,0,-0.13333333,0,359.50667)" />
      <path
         id="path25"
         d="m 7087.79,1021.59 h 975.02 v 156.46 h -803.74 v 294.8 h 597.89 v 158.14 h -597.89 v 293.16 h 803.74 v 156.46 H 7087.79 V 1021.59"
         style="fill:#171717;fill-opacity:1;fill-rule:nonzero;stroke:none"
         transform="matrix(0.13333333,0,0,-0.13333333,0,359.50667)" />
      <path
         id="path26"
         d="m 9948.25,1640.84 c -56.03,0 -126.78,4.97 -182.8,26.38 -56.03,21.42 -95.52,57.61 -95.52,116.96 0,123.51 153.17,161.38 273.36,161.38 110.41,0 271.81,-32.93 294.81,-141.64 l 3.3,-11.52 h 171.3 l -3.2,18.12 c -29.8,225.63 -283.3,291.5 -479.33,291.5 -215.78,0 -431.56,-83.99 -431.56,-324.44 0,-265.19 252.01,-293.2 457.87,-293.2 59.32,0 136.72,-4.93 199.32,-27.97 62.5,-23.08 105.4,-60.95 105.4,-126.82 0,-133.42 -169.6,-172.95 -298.13,-172.95 -113.67,0 -284.91,32.93 -311.3,143.31 l -3.25,11.52 h -171.33 l 3.34,-18.12 c 32.9,-228.93 301.36,-293.17 498.98,-293.17 222.39,0 452.99,85.66 452.99,337.63 0,275.06 -271.8,303.03 -484.25,303.03"
         style="fill:#171717;fill-opacity:1;fill-rule:nonzero;stroke:none"
         transform="matrix(0.13333333,0,0,-0.13333333,0,359.50667)" />
      <path
         id="path27"
         d="m 13386.7,1996.61 c 179.5,0 324.4,-116.92 380.5,-283.29 h 84 c -61,217.42 -233.9,362.36 -462.8,362.36 -298.1,0 -484.3,-247.04 -484.3,-538.57 0,-291.52 186.2,-538.559 484.3,-538.559 228.9,0 401.8,146.559 462.8,363.979 h -84 c -56.1,-166.36 -201,-281.66 -380.5,-281.66 -252,0 -405.1,227.3 -405.1,457.87 0,228.92 153.1,457.87 405.1,457.87"
         style="fill:#171717;fill-opacity:1;fill-rule:nonzero;stroke:none"
         transform="matrix(0.13333333,0,0,-0.13333333,0,359.50667)" />
      <path
         id="path28"
         d="m 14944.6,2052.64 v -480.97 h -775.7 v 480.97 h -77.4 V 1021.59 h 77.4 v 482.57 h 775.7 v -482.57 h 75.8 v 1031.05 h -75.8"
         style="fill:#171717;fill-opacity:1;fill-rule:nonzero;stroke:none"
         transform="matrix(0.13333333,0,0,-0.13333333,0,359.50667)" />
      <path
         id="path29"
         d="m 11830.5,1021.59 h 905.8 v 69.17 h -828.4 v 413.4 h 617.6 v 67.51 h -617.6 v 411.8 h 828.4 v 69.17 h -905.8 V 1021.59"
         style="fill:#171717;fill-opacity:1;fill-rule:nonzero;stroke:none"
         transform="matrix(0.13333333,0,0,-0.13333333,0,359.50667)" />
      <path
         id="path30"
         d="m 10684.3,1983.47 h 426.6 v -961.88 h 75.8 v 961.88 h 426.6 v 69.17 h -929 v -69.17"
         style="fill:#171717;fill-opacity:1;fill-rule:nonzero;stroke:none"
         transform="matrix(0.13333333,0,0,-0.13333333,0,359.50667)" />
    </g>
  </g>
</svg>
